<?xml version="1.0" encoding="utf-8"?>
<!-- Generator: Adobe Illustrator 24.0.1, SVG Export Plug-In . SVG Version: 6.00 Build 0)  -->
<svg version="1.1" xmlns="http://www.w3.org/2000/svg" xmlns:xlink="http://www.w3.org/1999/xlink" x="0px" y="0px"
	 viewBox="0 0 2000 2000" style="enable-background:new 0 0 2000 2000;" xml:space="preserve">
<g id="Layer_2">
</g>
<g id="Layer_3">
	<path d="M1460.2,231.4c0-10.4-4.3-12.1-21.6-8.6c-17.3,3.5-11.2,10.4-11.2,10.4v64c-80.4-32-56.2-96-56.2-96
		c40.6-0.9,47.5-11.2,47.5-11.2c-33.7-23.3-153-13.8-231.7,25.9c-78.7,39.8-202.3,74.3-202.3,74.3c12.1,6.9,108.1,13.8,108.1,13.8
		s-60.5,37.2-75.2,60.5c-21.6,43.2-31.1,299.1-31.1,299.1s-4.3-109.8-6.1-131.4c-1.7-21.6,1.7-30.3-31.1-59.6
		c-32.9-29.4-26.8-45-26.8-45c17.3,11.2,52.7,9.5,52.7,9.5c0-104.6-132.3-115-132.3-115c22.5-2.6,63.1-30.3,55.3-30.3
		c-242.9,6.9-330.2-66.6-330.2-66.6c3.5,35.4,52.3,62.2,90.8,85.2c-54.5-5.2-101.1,41.1-101.1,41.1s4.3-83.9,4.8-98.1
		c0.4-14.3-22.5-16.9-24.8-5.6c-2.4,11.2-8,167.7,0,204.9c8,37.2,8.4,82.1,1.9,142.2c-13.4,151.3,47.1,317.7,57.9,336.3
		c10.8,18.6,32.8,5.2,28.5-3.5c-80.4-160.8-51.9-274.5-49.3-296.1c13.4,16.4,54.9,22.9,53.2,19.9c-7.8-6.9-49.3-51.9-50.1-57.5
		c-0.9-5.6,0.9-76.5,0.9-76.5c44.1,130.5,134,99.8,178.5,80.8c44.5-19,114.1,3.9,124.9,11.2c10.8,7.3,3,92.5,4.8,127.9
		c1.7,35.4-12.5,40.6-19,60.5c-13,59.2,19.5,72.2,42.4,73.9c22.9,1.7,34.1,32,77.4,35c53.6,2.2,67-24.2,82.6-42.4
		c45.8,0.4,41.9-21.2,45.4-29.4c15.6,4.3,42.4,61.4,42.4,61.4c2.2-14.3-11.7-66.1-11.7-66.1s60.9,41.5,92.9,83.9
		c32,42.4-24.6,69.6-32,72.2c-7.3,2.6-29.8-0.4-27.7,4.3c12.5,15.1,49.7,22.5,64,25.5c-10.4,21.6-52.3,39.3-90.3,40.6
		c-38,1.3-115.8-35-127.1-36.3c-11.2-1.3-17.7,6.1-26.4,10.8c-8.6,4.8-21.2,2.6-28.1-4.8c-6.9-7.3-23.8-4.3-30.3-0.9
		c-6.5,3.5-121.9,26.4-137,25.9c-15.1-0.4-20.3,10.4-8.2,16c35.9,14.7,101.1-5.2,126.6-17.3c25.5-12.1,48,6.1,48.4,10.8
		c0.4,4.8-38.9,8.2-26.8,21.6c30.7,19,121.9-8.2,149.1,1.7c27.2,9.9,17.3,25.5,0,42.8c-46.7,45.8-194.1,12.5-229.5-5.6
		c-35.4-18.2-37.6-2.2-37.6-2.2s29,66.1,168.6,67.9c139.6,1.7,177.2-75.2,194.5-94.7c17.3-19.5,45.4-20.3,50.6-19.9
		c5.2,0.4,11.7,14.7,6.5,56.6c-5.2,41.9-113.2,175.1-115.8,188.5c-2.6,13.4,13.4,24.6,18.2,17.3c45-31.1,156-239,188.5-307.3
		c32.4-68.3,49.3-92.5,40.6-102.9c-8.6-10.4-23.8,4.8-23.8,4.8c-8.6-68.3,32-92.5,32-92.5s-6.1,20.7-1.7,36.7c4.3,16,22,5.6,22,5.6
		c38-86.4,35.4-270.6,31.1-325C1435.2,500.3,1460.2,241.8,1460.2,231.4z M776,550.9c-24.6,12.1-105.5,13.4-105.5,13.4
		s38.5,16,60.9,15.6c-29,4.3-92.1,6.5-105.9-22.5c-13.8-29-22.9-85.6-47.1-54.5c-3-20.3-5.6-33.5-3.5-36c2.2-2.5,13.4-8.1,13.4-8.1
		s-25.1-12.1-19-54.9c0,0,12.1-51,63.1-52.3c51-1.3,101.1,6.1,111.5,22.9c-13,3-94.7,10.4-119.7,31.1c23.8,1.7,140-25.9,188.5,25.9
		c48.4,51.9,63.5,71.8,64,107.6C876.7,539.2,800.6,538.8,776,550.9z M1104.5,403.5c0,0,60.5-103.7,157.3-103.7
		c96.8,0,127.9,51.9,127.9,51.9S1264,278.6,1104.5,403.5z M1264.9,434.2c91.6,12.1,93.4,26.8,150.4,22.5
		c-6.5,25.5-48.8,111.1-122.3,115.4c-73.5,4.3-106.8-43.7-166.4-36.3C1126.5,535.7,1173.2,422.1,1264.9,434.2z M1163.3,791.6
		c-61.8-72.6-37.6-143.5,30.3-181.5c67.9-38,139.2,16.4,162.5,37.6c23.3,21.2,61.4,33.7,61.4,33.7c7.4,2.7,9.1,19.5-2.2,26.4
		c-11.2,6.9-36.3-18.2-49.3-34.1c-50.6-60.9-150-50.1-181.1-25.1c-69.6,62.2-12.1,128.4,38.9,167.3c51,38.9,74.3,83.9,82.1,112.8
		C1270.5,872.9,1225.1,864.2,1163.3,791.6z M1426.5,747.8c-13.8,0.6-64.4-30.5-89-59.5s-100.7-32.8-100.7-32.8
		c35.6-16.9,88.3,13.4,102.2,29.5c13.8,16.1,74.9,51.3,84.4,51.3C1432.8,736.3,1427.7,742.6,1426.5,747.8z"/>
</g>
</svg>
