<?xml version="1.0" encoding="utf-8"?>
<!-- Generator: Adobe Illustrator 24.0.1, SVG Export Plug-In . SVG Version: 6.00 Build 0)  -->
<svg version="1.1" id="Layer_1" xmlns="http://www.w3.org/2000/svg" xmlns:xlink="http://www.w3.org/1999/xlink" x="0px" y="0px"
	 viewBox="0 0 1500 1999" style="enable-background:new 0 0 1500 1999;" xml:space="preserve">
<style type="text/css">
	.st0{fill:#020203;}
</style>
<g id="Layer_2_1_">
</g>
<g id="Layer_3">
	<path class="st0" d="M1500,160.5c0-16.7-6.9-19.4-34.6-13.8c-27.7,5.6-18,16.7-18,16.7V266c-129-51.3-90.1-154-90.1-154
		c65.1-1.4,76.2-18,76.2-18c-54.1-37.4-245.4-22.1-371.7,41.5c-126.2,63.8-324.5,119.2-324.5,119.2c19.4,11.1,173.4,22.1,173.4,22.1
		s-97,59.7-120.6,97c-34.6,69.3-49.9,479.8-49.9,479.8s-6.9-176.1-9.8-210.8c-2.7-34.6,2.7-48.6-49.9-95.6
		c-52.8-47.2-43-72.2-43-72.2c27.7,18,84.5,15.2,84.5,15.2c0-167.8-212.2-184.5-212.2-184.5c36.1-4.2,101.2-48.6,88.7-48.6
		C208.9,268.4,68.9,150.5,68.9,150.5c5.6,56.8,83.9,99.8,145.6,136.7c-87.4-8.3-162.2,65.9-162.2,65.9s6.9-134.6,7.7-157.4
		c0.6-22.9-36.1-27.1-39.8-9c-3.8,18-12.8,269,0,328.7c12.8,59.7,13.5,131.7,3,228.1C1.8,986.2,98.9,1253.1,116.2,1283
		c17.3,29.8,52.6,8.3,45.7-5.6C33,1019.4,78.7,837,82.8,802.4c21.5,26.3,88.1,36.7,85.3,31.9c-12.5-11.1-79.1-83.2-80.4-92.2
		c-1.4-9,1.4-122.7,1.4-122.7C160,828.7,304.2,779.4,375.6,749s183,6.3,200.3,18c17.3,11.7,4.8,148.4,7.7,205.2
		c2.7,56.8-20.1,65.1-30.5,97c-20.9,95,31.3,115.8,68,118.5c36.7,2.7,54.7,51.3,124.2,56.1c86,3.5,107.5-38.8,132.5-68
		c73.5,0.6,67.2-34,72.8-47.2c25,6.9,68,98.5,68,98.5c3.5-22.9-18.8-106-18.8-106s97.7,66.6,149,134.6
		c51.3,68-39.5,111.6-51.3,115.8c-11.7,4.2-47.8-0.6-44.4,6.9c20.1,24.2,79.7,36.1,102.7,40.9c-16.7,34.6-83.9,63-144.8,65.1
		c-61,2.1-185.7-56.1-203.9-58.2c-18-2.1-28.4,9.8-42.3,17.3c-13.8,7.7-34,4.2-45.1-7.7c-11.1-11.7-38.2-6.9-48.6-1.4
		c-10.4,5.6-195.5,42.3-219.8,41.5c-24.2-0.6-32.6,16.7-13.2,25.7c57.6,23.6,162.2-8.3,203.1-27.7c40.9-19.4,77,9.8,77.6,17.3
		c0.6,7.7-62.4,13.2-43,34.6c49.2,30.5,195.5-13.2,239.2,2.7c43.6,15.9,27.7,40.9,0,68.7c-74.9,73.5-311.3,20.1-368.1-9
		c-56.8-29.2-60.3-3.5-60.3-3.5s46.5,106,270.4,108.9c223.9,2.7,284.2-120.6,312-151.9s72.8-32.6,81.2-31.9
		c8.3,0.6,18.8,23.6,10.4,90.8c-8.3,67.2-181.6,280.9-185.7,302.4c-4.2,21.5,21.5,39.5,29.2,27.7c72.2-49.9,250.2-383.4,302.4-492.9
		c52-109.6,79.1-148.4,65.1-165.1c-13.8-16.7-38.2,7.7-38.2,7.7c-13.8-109.6,51.3-148.4,51.3-148.4s-9.8,33.2-2.7,58.9
		c6.9,25.7,35.3,9,35.3,9c61-138.6,56.8-434.1,49.9-521.3C1459.9,591.8,1500,177.1,1500,160.5z M402.5,672.9
		c-39.5,19.4-169.2,21.5-169.2,21.5s61.8,25.7,97.7,25c-46.5,6.9-147.7,10.4-169.9-36.1c-22.1-46.5-36.7-137.3-75.5-87.4
		c-4.8-32.6-9-53.7-5.6-57.7c3.5-4,21.5-13,21.5-13S61.2,505.8,71,437.1c0,0,19.4-81.8,101.2-83.9C254,351.2,334.4,363,351,390
		c-20.9,4.8-151.9,16.7-192,49.9c38.2,2.7,224.6-41.5,302.4,41.5C539,564.7,563.2,596.6,564,654C564,654.2,442,653.5,402.5,672.9z
		 M929.4,436.5c0,0,97-166.3,252.3-166.3s205.2,83.2,205.2,83.2S1185.3,236.2,929.4,436.5z M1186.7,485.8
		c146.9,19.4,149.8,43,241.2,36.1c-10.4,40.9-78.3,178.2-196.2,185.1c-117.9,6.9-171.3-70.1-266.9-58.2
		C964.7,648.6,1039.6,466.3,1186.7,485.8z M1023.8,1059c-99.1-116.5-60.3-230.2,48.6-291.1c108.9-61,223.3,26.3,260.7,60.3
		c37.4,34,98.5,54.1,98.5,54.1c11.9,4.3,14.6,31.3-3.5,42.3c-18,11.1-58.2-29.2-79.1-54.7c-81.2-97.7-240.6-80.4-290.5-40.3
		c-111.6,99.8-19.4,206,62.4,268.4c81.8,62.4,119.2,134.6,131.7,180.9C1195.7,1189.4,1122.9,1175.5,1023.8,1059z M1445.9,988.8
		c-22.1,1-103.3-48.9-142.8-95.4s-161.5-52.6-161.5-52.6c57.1-27.1,141.6,21.5,163.9,47.3c22.1,25.8,120.1,82.3,135.4,82.3
		C1456,970.3,1447.9,980.4,1445.9,988.8z"/>
</g>
</svg>
