<svg id="tripadvisor-nederland" xmlns="http://www.w3.org/2000/svg" width="374.344" height="56.531" viewBox="0 0 374.344 56.531">
  <g id="Owl" transform="translate(0 2.25)">
    <path id="Path_19" data-name="Path 19" d="M14.931,26.78a16.644,16.644,0,0,0,21.656,9.844,16.644,16.644,0,0,0,9.844-21.656A16.644,16.644,0,0,0,24.774,5.124C16.337,8.218,11.837,18.062,14.931,26.78Z" transform="translate(25.288 5.001)" fill="#fff"/>
    <circle id="Ellipse_9" data-name="Ellipse 9" cx="16.875" cy="16.875" r="16.875" transform="translate(1.969 9)" fill="#fff"/>
    <path id="Path_20" data-name="Path 20" d="M11.687,11.894A3.094,3.094,0,1,1,8.594,8.8,3.121,3.121,0,0,1,11.687,11.894Z" transform="translate(9.969 13.7)" fill="#be3538"/>
    <path id="Path_21" data-name="Path 21" d="M24.987,11.894A3.094,3.094,0,1,1,21.894,8.8,3.121,3.121,0,0,1,24.987,11.894Z" transform="translate(34.075 13.7)" fill="#589442"/>
    <path id="Path_22" data-name="Path 22" d="M3.3,15.881a9.364,9.364,0,0,0,9.281,9.281,9.364,9.364,0,0,0,9.281-9.281A9.364,9.364,0,0,0,12.581,6.6,9.364,9.364,0,0,0,3.3,15.881Zm3.094,0a6.187,6.187,0,1,1,6.188,6.188,6.242,6.242,0,0,1-6.188-6.187Zm34.312,0a9.281,9.281,0,1,0,18.563,0,9.281,9.281,0,0,0-18.562,0Zm3.375,0a6.188,6.188,0,1,1,6.188,6.188A6.065,6.065,0,0,1,44.081,15.881Z" transform="translate(5.981 9.712)"/>
    <path id="Path_23" data-name="Path 23" d="M17.015,27.718A14.337,14.337,0,0,0,23.2,33.062a14.9,14.9,0,0,0,11.531.562A14.552,14.552,0,0,0,43.453,14.5,14.552,14.552,0,0,0,24.328,5.781a15.419,15.419,0,0,0-8.437,7.875,14.377,14.377,0,0,0-1.125,7.594" transform="translate(26.578 6.313)" fill="none"/>
    <path id="Path_24" data-name="Path 24" d="M37.356,6.881a14.688,14.688,0,0,1,5.906-1.125A42.475,42.475,0,0,0,24.981,2.1,42.475,42.475,0,0,0,6.7,5.756,18.673,18.673,0,0,1,24.981,23.194a16.953,16.953,0,0,1,1.688-6.469A19.224,19.224,0,0,1,37.356,6.881Z" transform="translate(12.144 1.556)" fill="#ffd881"/>
    <path id="Path_25" data-name="Path 25" d="M71.156,15.425a25.818,25.818,0,0,1,3.656-7.594H62.437A45.8,45.8,0,0,0,37.406.8,47.058,47.058,0,0,0,11.812,7.831L0,8.112a22.175,22.175,0,0,1,3.656,7.594A18.352,18.352,0,0,0,0,26.675,18.805,18.805,0,0,0,33.469,38.487l3.938,5.906,3.937-5.906a17.838,17.838,0,0,0,6.75,5.344,19.43,19.43,0,0,0,14.344.563A18.846,18.846,0,0,0,73.406,20.206a10.7,10.7,0,0,0-2.25-4.781ZM37.406,4.456A42.475,42.475,0,0,1,55.687,8.112a14.688,14.688,0,0,0-5.906,1.125,17.145,17.145,0,0,0-10.406,9.844,24.323,24.323,0,0,0-1.687,6.469A18.881,18.881,0,0,0,19.406,8.113c5.063-2.531,11.25-3.656,18-3.656ZM31.219,35.112a15.191,15.191,0,0,1-12.375,6.469,14.906,14.906,0,1,1,0-29.812A14.824,14.824,0,0,1,33.75,26.675a2.536,2.536,0,0,1-.281,1.406,15.915,15.915,0,0,1-2.25,7.031Zm30.094,5.625a14.956,14.956,0,0,1-11.531-.562,14.337,14.337,0,0,1-6.187-5.344,30.679,30.679,0,0,1-1.687-3.094,17.175,17.175,0,0,1-.844-3.656,13.983,13.983,0,0,1,1.125-7.594,15.419,15.419,0,0,1,8.437-7.875A14.9,14.9,0,0,1,69.75,21.331,14.623,14.623,0,0,1,61.312,40.737Z" transform="translate(0 -0.8)"/>
  </g>
  <g id="Netherlands" transform="translate(85.219)">
    <path id="Path_26" data-name="Path 26" d="M95.6,4.356a3.656,3.656,0,0,0,7.313,0,3.656,3.656,0,0,0-7.313,0Z" transform="translate(88.056 1.269)" fill="#589442"/>
    <path id="Path_27" data-name="Path 27" d="M42.112,2.081,36.487,4.05v7.031H30.3v4.781h5.906V31.331c0,7.312,2.531,10.406,8.719,10.406a21.859,21.859,0,0,0,4.5-.562h.281V36.112h-.281a16.187,16.187,0,0,1-2.812.563c-2.812,0-3.938-1.687-3.938-5.906V15.862h7.031V11.081H42.675V1.8l-.562.281ZM60.956,15.862V11.081H55.331V41.175h6.188V25.987c0-6.187,2.531-9.844,7.594-9.844a6.99,6.99,0,0,1,2.25.281h.281V10.8l-2.531-.281a9.151,9.151,0,0,0-8.156,5.344Zm43.594-5.625c-4.219,0-7.594,1.969-10.125,5.625V11.081H88.8V53.269h6.188V36.956a10.734,10.734,0,0,0,9.281,4.5c7.594,0,12.656-6.187,12.656-16.031,0-9-5.062-15.187-12.375-15.187Zm-1.687,26.437c-4.781,0-7.875-4.219-7.875-10.687s3.094-10.406,8.156-10.406c4.781,0,7.594,3.937,7.594,10.406C110.456,32.456,107.644,36.675,102.863,36.675Z" transform="translate(-30.3 3.262)"/>
    <path id="Path_28" data-name="Path 28" d="M75.919,13.5a18.865,18.865,0,0,0-9.844,2.25h-.281v5.063h.562a16.123,16.123,0,0,1,8.156-2.531c4.5,0,7.031,2.531,7.031,7.031v.281H78.169C68.044,25.594,62.7,29.25,62.7,35.719c0,5.344,3.938,9,9.563,9a12,12,0,0,0,9.844-4.781v4.219h5.625v-18C87.169,17.719,83.512,13.5,75.919,13.5Zm5.344,18.281c0,5.062-3.094,8.437-7.875,8.437a4.81,4.81,0,0,1-5.063-4.781c0-3.656,3.375-5.625,9.844-5.625h3.094v1.969ZM113.044,0V18.281a10.973,10.973,0,0,0-9.281-4.781c-7.313,0-12.375,6.187-12.375,15.188,0,9.281,5.063,16.031,12.375,16.031a11.1,11.1,0,0,0,9.844-5.625v5.063h5.625V0Zm-7.875,39.656c-4.5,0-7.594-3.937-7.594-10.687,0-6.469,2.812-10.687,7.312-10.687,5.063,0,8.156,3.938,8.156,10.688S109.95,39.656,105.169,39.656Zm41.062-25.312-8.719,17.437-7.875-17.437h-6.75l14.625,30.094L152.7,14.344h-6.469Zm15.188,0h-5.625V44.437h6.187V14.344Zm7.594,7.594c0,4.219,2.813,6.469,8.156,9,3.375,1.688,5.063,2.531,5.063,5.062s-2.25,3.938-5.625,3.938a16.081,16.081,0,0,1-7.594-1.969l-.562-.281-.281,5.344h.281a18.654,18.654,0,0,0,7.875,1.406c7.313,0,12.375-3.656,12.375-9,0-4.5-3.094-7.031-8.437-9.281-3.938-1.688-5.344-2.812-5.344-4.781,0-1.687,1.688-3.094,4.5-3.094a16.409,16.409,0,0,1,7.313,1.688l.563.281.281-5.062h-.281a23.172,23.172,0,0,0-7.312-1.125c-6.469,0-10.969,3.094-10.969,7.875ZM207.825,13.5c-9.281,0-14.906,5.906-14.906,15.75S198.544,45,207.825,45s14.906-5.906,14.906-15.75S217.106,13.5,207.825,13.5Zm0,26.437c-5.062,0-8.437-4.219-8.437-10.687s3.375-10.969,8.438-10.969,8.438,4.219,8.438,10.969C216.262,35.719,213.169,39.937,207.825,39.937Zm26.156-20.812V14.344h-5.625V44.437h6.188V29.25c0-6.187,2.531-9.844,7.594-9.844a6.99,6.99,0,0,1,2.25.281h.281l.281-5.906-2.531-.281a9.684,9.684,0,0,0-8.437,5.625Z" transform="translate(28.425)" fill="#589442"/>
    <path id="Path_29" data-name="Path 29" d="M53.069,13.075H47.444V43.169H53.35V13.075ZM46.6,4.356a3.656,3.656,0,0,0,7.313,0,3.656,3.656,0,0,0-7.312,0Z" transform="translate(-0.756 1.269)"/>
    <path id="Path_30" data-name="Path 30" d="M138.944,5.467A4.9,4.9,0,0,1,140.35,9.4a5.553,5.553,0,0,1-1.688,3.937,5.437,5.437,0,0,1-7.875,0A4.951,4.951,0,0,1,129.1,9.686a5.553,5.553,0,0,1,1.688-3.937,4.657,4.657,0,0,1,3.656-1.406,4.225,4.225,0,0,1,4.5,1.125Zm-7.031.562a4.516,4.516,0,0,0-1.406,3.094,4.516,4.516,0,0,0,1.406,3.094,4.106,4.106,0,0,0,6.188,0,4.516,4.516,0,0,0,1.406-3.094,5.9,5.9,0,0,0-1.125-3.094,4.516,4.516,0,0,0-3.094-1.406,6.173,6.173,0,0,0-3.375,1.406Zm3.094.281q2.531,0,2.531,1.687a1.783,1.783,0,0,1-1.406,1.687l1.406,2.531H135.85l-1.125-2.25h-.281v2.25h-1.688V6.311h2.25Zm-.562,2.531h.563c.844,0,1.125-.281,1.125-.844s-.281-.844-1.125-.844h-.562V8.842Z" transform="translate(148.775 7.47)" fill="#abc99f"/>
  </g>
</svg>
